<svg width="33" height="32" viewBox="0 0 33 32" fill="none" xmlns="http://www.w3.org/2000/svg">
<path d="M16.3139 9.62936C15.1459 9.62936 13.3379 8.30136 11.4339 8.34936C8.92193 8.38136 6.61793 9.80536 5.32193 12.0614C2.71393 16.5894 4.64993 23.2774 7.19393 26.9574C8.44193 28.7494 9.91393 30.7654 11.8659 30.7014C13.7379 30.6214 14.4419 29.4854 16.7139 29.4854C18.9699 29.4854 19.6099 30.7014 21.5939 30.6534C23.6099 30.6214 24.8899 28.8294 26.1219 27.0214C27.5459 24.9414 28.1379 22.9254 28.1699 22.8134C28.1219 22.7974 24.2499 21.3094 24.2019 16.8294C24.1699 13.0854 27.2579 11.2934 27.4019 11.2134C25.6419 8.63736 22.9379 8.34936 21.9939 8.28536C19.5299 8.09336 17.4659 9.62936 16.3139 9.62936ZM20.4739 5.85336C21.5139 4.60536 22.2019 2.86136 22.0099 1.13336C20.5219 1.19736 18.7299 2.12536 17.6579 3.37336C16.6979 4.47736 15.8659 6.25336 16.0899 7.94936C17.7379 8.07736 19.4339 7.10136 20.4739 5.85336Z" fill="black"/>
</svg>
