<svg width="33" height="32" viewBox="0 0 33 32" fill="none" xmlns="http://www.w3.org/2000/svg">
<path d="M29.8241 13.3887H28.7501V13.3334H16.7501V18.6667H24.2854C23.1861 21.7714 20.2321 24 16.7501 24C12.3321 24 8.75008 20.418 8.75008 16C8.75008 11.582 12.3321 8.00002 16.7501 8.00002C18.7894 8.00002 20.6447 8.76935 22.0574 10.026L25.8287 6.25469C23.4474 4.03535 20.2621 2.66669 16.7501 2.66669C9.38675 2.66669 3.41675 8.63669 3.41675 16C3.41675 23.3634 9.38675 29.3334 16.7501 29.3334C24.1134 29.3334 30.0834 23.3634 30.0834 16C30.0834 15.106 29.9914 14.2334 29.8241 13.3887Z" fill="#FFC107"/>
<path d="M4.9541 9.79402L9.33477 13.0067C10.5201 10.072 13.3908 8.00002 16.7501 8.00002C18.7894 8.00002 20.6448 8.76935 22.0574 10.026L25.8288 6.25469C23.4474 4.03535 20.2621 2.66669 16.7501 2.66669C11.6288 2.66669 7.18743 5.55802 4.9541 9.79402Z" fill="#FF3D00"/>
<path d="M16.7499 29.3333C20.1939 29.3333 23.3232 28.0153 25.6892 25.872L21.5625 22.38C20.1791 23.4327 18.4883 24.0018 16.7499 24C13.2819 24 10.3372 21.7886 9.22788 18.7026L4.87988 22.0526C7.08655 26.3706 11.5679 29.3333 16.7499 29.3333Z" fill="#4CAF50"/>
<path d="M29.824 13.3886H28.75V13.3333H16.75V18.6666H24.2853C23.7595 20.1443 22.8122 21.4354 21.5607 22.3806L21.5627 22.3793L25.6893 25.8713C25.3973 26.1366 30.0833 22.6666 30.0833 16C30.0833 15.106 29.9913 14.2333 29.824 13.3886Z" fill="#1976D2"/>
</svg>
