<svg width="34" height="36" viewBox="0 0 34 36" fill="none" xmlns="http://www.w3.org/2000/svg">
<path d="M33.875 34C33.875 34.4973 33.6775 34.9742 33.3258 35.3258C32.9742 35.6775 32.4973 35.875 32 35.875H2C1.50272 35.875 1.02581 35.6775 0.674175 35.3258C0.322544 34.9742 0.125 34.4973 0.125 34V14.2938C0.124802 14.008 0.189907 13.726 0.315343 13.4693C0.440778 13.2126 0.623225 12.9879 0.84875 12.8125L15.8487 1.14438C16.1779 0.88834 16.583 0.749329 17 0.749329C17.417 0.749329 17.8221 0.88834 18.1513 1.14438L33.1512 12.8125C33.3768 12.9879 33.5592 13.2126 33.6847 13.4693C33.8101 13.726 33.8752 14.008 33.875 14.2938V34ZM30.125 32.125V15.2088L17 5.00125L3.875 15.2088V32.125H30.125Z"/>
</svg>
