<svg width="171" height="27" viewBox="0 0 171 27" fill="none" xmlns="http://www.w3.org/2000/svg">
<path d="M169.588 10.1471V9.85294C169.588 7.17274 167.415 5 164.735 5C162.055 5 159.882 7.17274 159.882 9.85294V10.1471C159.882 12.8273 162.055 15 164.735 15C167.415 15 169.588 12.8273 169.588 10.1471Z" fill="#DEC7FF" stroke="black"/>
<path d="M167.647 13.1471V12.8529C167.647 10.1727 165.474 8 162.794 8C160.114 8 157.941 10.1727 157.941 12.8529V13.1471C157.941 15.8273 160.114 18 162.794 18C165.474 18 167.647 15.8273 167.647 13.1471Z" fill="#3A1CE9" stroke="black"/>
<path d="M165.706 16.1471V15.8529C165.706 13.1727 163.533 11 160.853 11C158.173 11 156 13.1727 156 15.8529V16.1471C156 18.8273 158.173 21 160.853 21C163.533 21 165.706 18.8273 165.706 16.1471Z" fill="#FFF7F0" stroke="black"/>
<path d="M4.18 6.38V21H1.62V6.38H4.18ZM7.42 14.78H3.4V12.62H7.28C7.98667 12.62 8.52667 12.4467 8.9 12.1C9.27333 11.74 9.46 11.2333 9.46 10.58C9.46 9.95333 9.26667 9.47333 8.88 9.14C8.49333 8.80667 7.93333 8.64 7.2 8.64H3.32V6.38H7.42C8.87333 6.38 10.0133 6.73333 10.84 7.44C11.6667 8.14667 12.08 9.11333 12.08 10.34C12.08 11.22 11.8667 11.96 11.44 12.56C11.0133 13.1467 10.38 13.5733 9.54 13.84V13.56C10.4467 13.7733 11.1333 14.1733 11.6 14.76C12.0667 15.3467 12.3 16.1067 12.3 17.04C12.3 17.8667 12.1133 18.58 11.74 19.18C11.3667 19.7667 10.82 20.22 10.1 20.54C9.39333 20.8467 8.54 21 7.54 21H3.32V18.74H7.42C8.15333 18.74 8.71333 18.5667 9.1 18.22C9.48667 17.8733 9.68 17.3733 9.68 16.72C9.68 16.1067 9.48 15.6333 9.08 15.3C8.69333 14.9533 8.14 14.78 7.42 14.78ZM13.7073 16.04C13.7073 15.0133 13.934 14.1133 14.3873 13.34C14.8407 12.5533 15.4673 11.94 16.2673 11.5C17.0673 11.06 17.974 10.84 18.9873 10.84C20.014 10.84 20.9207 11.06 21.7073 11.5C22.5073 11.94 23.134 12.5533 23.5873 13.34C24.0407 14.1133 24.2673 15.0133 24.2673 16.04C24.2673 17.0667 24.0407 17.9733 23.5873 18.76C23.134 19.5333 22.5073 20.14 21.7073 20.58C20.9207 21.02 20.014 21.24 18.9873 21.24C17.974 21.24 17.0673 21.02 16.2673 20.58C15.4673 20.14 14.8407 19.5333 14.3873 18.76C13.934 17.9733 13.7073 17.0667 13.7073 16.04ZM16.1473 16.04C16.1473 16.64 16.2673 17.1667 16.5073 17.62C16.7607 18.0733 17.094 18.4267 17.5073 18.68C17.934 18.9333 18.4273 19.06 18.9873 19.06C19.5473 19.06 20.0407 18.9333 20.4673 18.68C20.894 18.4267 21.2273 18.0733 21.4673 17.62C21.7073 17.1667 21.8273 16.64 21.8273 16.04C21.8273 15.4267 21.7073 14.9 21.4673 14.46C21.2273 14.0067 20.894 13.6533 20.4673 13.4C20.0407 13.1467 19.5473 13.02 18.9873 13.02C18.4273 13.02 17.934 13.1467 17.5073 13.4C17.094 13.6533 16.7607 14.0067 16.5073 14.46C16.2673 14.9 16.1473 15.4267 16.1473 16.04ZM29.1414 21.26C28.1014 21.26 27.2747 20.98 26.6614 20.42C26.0614 19.8467 25.7614 19.1 25.7614 18.18C25.7614 17.2733 26.0747 16.5533 26.7014 16.02C27.3414 15.4733 28.2481 15.1533 29.4214 15.06L32.3814 14.82V14.6C32.3814 14.1467 32.2947 13.7867 32.1214 13.52C31.9614 13.24 31.7281 13.04 31.4214 12.92C31.1147 12.7867 30.7547 12.72 30.3414 12.72C29.6214 12.72 29.0681 12.8667 28.6814 13.16C28.2947 13.44 28.1014 13.84 28.1014 14.36H26.0214C26.0214 13.64 26.2014 13.02 26.5614 12.5C26.9347 11.9667 27.4547 11.5533 28.1214 11.26C28.8014 10.9667 29.5814 10.82 30.4614 10.82C31.3547 10.82 32.1214 10.98 32.7614 11.3C33.4014 11.6067 33.8947 12.0733 34.2414 12.7C34.5881 13.3133 34.7614 14.08 34.7614 15V21H32.6214L32.4414 19.54C32.2281 20.0467 31.8147 20.46 31.2014 20.78C30.6014 21.1 29.9147 21.26 29.1414 21.26ZM29.9214 19.42C30.6814 19.42 31.2814 19.2067 31.7214 18.78C32.1747 18.3533 32.4014 17.76 32.4014 17V16.48L30.3414 16.64C29.5814 16.7067 29.0414 16.8667 28.7214 17.12C28.4014 17.36 28.2414 17.68 28.2414 18.08C28.2414 18.52 28.3881 18.8533 28.6814 19.08C28.9747 19.3067 29.3881 19.42 29.9214 19.42ZM43.3584 11.08V13.34H42.4584C41.5651 13.34 40.8651 13.58 40.3584 14.06C39.8518 14.5267 39.5984 15.24 39.5984 16.2V21H37.1584V11.14H39.4584L39.6584 13.18H39.4184C39.5518 12.5267 39.8651 11.9933 40.3584 11.58C40.8518 11.1667 41.4918 10.96 42.2784 10.96C42.4518 10.96 42.6251 10.9667 42.7984 10.98C42.9718 10.9933 43.1584 11.0267 43.3584 11.08ZM48.738 21.26C47.778 21.26 46.9513 21.0467 46.258 20.62C45.578 20.18 45.0446 19.5733 44.658 18.8C44.2846 18.0267 44.098 17.1267 44.098 16.1C44.098 15.0733 44.2846 14.1667 44.658 13.38C45.0446 12.58 45.598 11.9533 46.318 11.5C47.038 11.0467 47.8913 10.82 48.878 10.82C49.5713 10.82 50.2046 10.96 50.778 11.24C51.3513 11.5067 51.7913 11.8867 52.098 12.38V6.12H54.518V21H52.278L52.118 19.46C51.8246 20.02 51.3713 20.46 50.758 20.78C50.158 21.1 49.4846 21.26 48.738 21.26ZM49.278 19.02C49.8513 19.02 50.3446 18.9 50.758 18.66C51.1713 18.4067 51.4913 18.0533 51.718 17.6C51.958 17.1333 52.078 16.6067 52.078 16.02C52.078 15.42 51.958 14.9 51.718 14.46C51.4913 14.0067 51.1713 13.6533 50.758 13.4C50.3446 13.1333 49.8513 13 49.278 13C48.718 13 48.2313 13.1333 47.818 13.4C47.4046 13.6533 47.0846 14.0067 46.858 14.46C46.6446 14.9133 46.538 15.4333 46.538 16.02C46.538 16.6067 46.6446 17.1267 46.858 17.58C47.0846 18.0333 47.4046 18.3867 47.818 18.64C48.2313 18.8933 48.718 19.02 49.278 19.02ZM63.6008 21.24C62.1741 21.24 60.9341 20.9333 59.8808 20.32C58.8408 19.6933 58.0274 18.82 57.4408 17.7C56.8674 16.5667 56.5808 15.2333 56.5808 13.7C56.5808 12.18 56.8741 10.8533 57.4608 9.72C58.0608 8.58667 58.9008 7.70667 59.9808 7.08C61.0608 6.45333 62.3074 6.14 63.7208 6.14C64.8808 6.14 65.9208 6.35333 66.8408 6.78C67.7608 7.20667 68.5208 7.80667 69.1208 8.58C69.7208 9.34 70.1008 10.2467 70.2608 11.3H67.5608C67.3074 10.4467 66.8341 9.78667 66.1408 9.32C65.4608 8.84 64.6274 8.6 63.6408 8.6C62.7608 8.6 61.9874 8.80667 61.3208 9.22C60.6674 9.63333 60.1608 10.22 59.8008 10.98C59.4408 11.74 59.2608 12.6467 59.2608 13.7C59.2608 14.7133 59.4408 15.6067 59.8008 16.38C60.1608 17.14 60.6674 17.7333 61.3208 18.16C61.9874 18.5733 62.7608 18.78 63.6408 18.78C64.6408 18.78 65.4941 18.54 66.2008 18.06C66.9208 17.58 67.4008 16.9333 67.6408 16.12H70.3008C70.1141 17.1333 69.7074 18.0267 69.0808 18.8C68.4674 19.5733 67.6874 20.1733 66.7408 20.6C65.8074 21.0267 64.7608 21.24 63.6008 21.24ZM78.4366 11.08V13.34H77.5366C76.6432 13.34 75.9432 13.58 75.4366 14.06C74.9299 14.5267 74.6766 15.24 74.6766 16.2V21H72.2366V11.14H74.5366L74.7366 13.18H74.4966C74.6299 12.5267 74.9432 11.9933 75.4366 11.58C75.9299 11.1667 76.5699 10.96 77.3566 10.96C77.5299 10.96 77.7032 10.9667 77.8766 10.98C78.0499 10.9933 78.2366 11.0267 78.4366 11.08ZM82.6375 21.26C81.5975 21.26 80.7708 20.98 80.1575 20.42C79.5575 19.8467 79.2575 19.1 79.2575 18.18C79.2575 17.2733 79.5708 16.5533 80.1975 16.02C80.8375 15.4733 81.7442 15.1533 82.9175 15.06L85.8775 14.82V14.6C85.8775 14.1467 85.7908 13.7867 85.6175 13.52C85.4575 13.24 85.2242 13.04 84.9175 12.92C84.6108 12.7867 84.2508 12.72 83.8375 12.72C83.1175 12.72 82.5642 12.8667 82.1775 13.16C81.7908 13.44 81.5975 13.84 81.5975 14.36H79.5175C79.5175 13.64 79.6975 13.02 80.0575 12.5C80.4308 11.9667 80.9508 11.5533 81.6175 11.26C82.2975 10.9667 83.0775 10.82 83.9575 10.82C84.8508 10.82 85.6175 10.98 86.2575 11.3C86.8975 11.6067 87.3908 12.0733 87.7375 12.7C88.0842 13.3133 88.2575 14.08 88.2575 15V21H86.1175L85.9375 19.54C85.7242 20.0467 85.3108 20.46 84.6975 20.78C84.0975 21.1 83.4108 21.26 82.6375 21.26ZM83.4175 19.42C84.1775 19.42 84.7775 19.2067 85.2175 18.78C85.6708 18.3533 85.8975 17.76 85.8975 17V16.48L83.8375 16.64C83.0775 16.7067 82.5375 16.8667 82.2175 17.12C81.8975 17.36 81.7375 17.68 81.7375 18.08C81.7375 18.52 81.8842 18.8533 82.1775 19.08C82.4708 19.3067 82.8842 19.42 83.4175 19.42ZM89.6355 11.12H95.7155V13.16H89.6355V11.12ZM95.7155 6.22V8.3C95.5688 8.3 95.4221 8.3 95.2755 8.3C95.1421 8.3 95.0021 8.3 94.8555 8.3C94.3088 8.3 93.9421 8.44667 93.7555 8.74C93.5688 9.03333 93.4755 9.42667 93.4755 9.92V21H91.0555V9.92C91.0555 9.01333 91.1955 8.28667 91.4755 7.74C91.7688 7.18 92.1688 6.77333 92.6755 6.52C93.1955 6.25333 93.7888 6.12 94.4555 6.12C94.6555 6.12 94.8621 6.12667 95.0755 6.14C95.2888 6.15333 95.5021 6.18 95.7155 6.22ZM95.5955 11.12H101.995V13.16H95.5955V11.12ZM100.075 21H97.6355V8.04H100.075V21ZM108.417 10.46C108.417 9.60667 108.637 8.85333 109.077 8.2C109.517 7.54667 110.123 7.04 110.897 6.68C111.683 6.30667 112.59 6.12 113.617 6.12C114.603 6.12 115.457 6.29333 116.177 6.64C116.91 6.98667 117.477 7.48 117.877 8.12C118.29 8.76 118.51 9.52 118.537 10.4H115.977C115.95 9.77333 115.723 9.28667 115.297 8.94C114.87 8.58 114.297 8.4 113.577 8.4C112.79 8.4 112.157 8.58 111.677 8.94C111.21 9.28667 110.977 9.76667 110.977 10.38C110.977 10.9 111.117 11.3133 111.397 11.62C111.69 11.9133 112.143 12.1333 112.757 12.28L115.057 12.8C116.31 13.0667 117.243 13.5267 117.857 14.18C118.47 14.82 118.777 15.6867 118.777 16.78C118.777 17.6733 118.557 18.46 118.117 19.14C117.677 19.82 117.05 20.3467 116.237 20.72C115.437 21.08 114.497 21.26 113.417 21.26C112.39 21.26 111.49 21.0867 110.717 20.74C109.943 20.38 109.337 19.88 108.897 19.24C108.47 18.6 108.243 17.8467 108.217 16.98H110.777C110.79 17.5933 111.03 18.08 111.497 18.44C111.977 18.7867 112.623 18.96 113.437 18.96C114.29 18.96 114.963 18.7867 115.457 18.44C115.963 18.08 116.217 17.6067 116.217 17.02C116.217 16.5133 116.083 16.1133 115.817 15.82C115.55 15.5133 115.117 15.3 114.517 15.18L112.197 14.66C110.957 14.3933 110.017 13.9133 109.377 13.22C108.737 12.5133 108.417 11.5933 108.417 10.46ZM119.753 11.12H125.993V13.16H119.753V11.12ZM124.093 21H121.653V8.04H124.093V21ZM134.23 11.12H136.67V21H134.41L134.23 19.68C133.936 20.1467 133.496 20.5267 132.91 20.82C132.323 21.1133 131.696 21.26 131.03 21.26C129.896 21.26 129.01 20.9 128.37 20.18C127.73 19.46 127.41 18.5 127.41 17.3V11.12H129.85V16.44C129.85 17.3733 130.03 18.0467 130.39 18.46C130.75 18.8733 131.27 19.08 131.95 19.08C132.723 19.08 133.296 18.8533 133.67 18.4C134.043 17.9333 134.23 17.2333 134.23 16.3V11.12ZM143.054 21.26C142.094 21.26 141.268 21.0467 140.574 20.62C139.894 20.18 139.361 19.5733 138.974 18.8C138.601 18.0267 138.414 17.1267 138.414 16.1C138.414 15.0733 138.601 14.1667 138.974 13.38C139.361 12.58 139.914 11.9533 140.634 11.5C141.354 11.0467 142.208 10.82 143.194 10.82C143.888 10.82 144.521 10.96 145.094 11.24C145.668 11.5067 146.108 11.8867 146.414 12.38V6.12H148.834V21H146.594L146.434 19.46C146.141 20.02 145.688 20.46 145.074 20.78C144.474 21.1 143.801 21.26 143.054 21.26ZM143.594 19.02C144.168 19.02 144.661 18.9 145.074 18.66C145.488 18.4067 145.808 18.0533 146.034 17.6C146.274 17.1333 146.394 16.6067 146.394 16.02C146.394 15.42 146.274 14.9 146.034 14.46C145.808 14.0067 145.488 13.6533 145.074 13.4C144.661 13.1333 144.168 13 143.594 13C143.034 13 142.548 13.1333 142.134 13.4C141.721 13.6533 141.401 14.0067 141.174 14.46C140.961 14.9133 140.854 15.4333 140.854 16.02C140.854 16.6067 140.961 17.1267 141.174 17.58C141.401 18.0333 141.721 18.3867 142.134 18.64C142.548 18.8933 143.034 19.02 143.594 19.02ZM151.377 21V11.12H153.817V21H151.377ZM152.577 9.14C152.164 9.14 151.811 9 151.517 8.72C151.237 8.42667 151.097 8.07333 151.097 7.66C151.097 7.24667 151.237 6.9 151.517 6.62C151.811 6.34 152.164 6.2 152.577 6.2C152.991 6.2 153.337 6.34 153.617 6.62C153.911 6.9 154.057 7.24667 154.057 7.66C154.057 8.07333 153.911 8.42667 153.617 8.72C153.337 9 152.991 9.14 152.577 9.14Z" fill="black"/>
</svg>
