<svg width="39" height="51" viewBox="0 0 39 51" fill="none" xmlns="http://www.w3.org/2000/svg">
<path d="M26.4825 42.3125L19.5 38.2038L12.5175 42.3125L14.37 34.38L8.21878 29.06L16.3175 28.3713L19.5 20.9375L22.6825 28.3713L30.7813 29.06L24.63 34.38M38.5 0.75H0.500028V5.5L12.0425 14.145C8.0155 15.8635 4.70558 18.9201 2.67253 22.7979C0.639476 26.6756 0.00807512 31.1365 0.885108 35.4262C1.76214 39.7158 4.09378 43.5709 7.4857 46.3395C10.8776 49.1081 15.1216 50.6203 19.5 50.6203C23.8784 50.6203 28.1224 49.1081 31.5144 46.3395C34.9063 43.5709 37.2379 39.7158 38.1149 35.4262C38.992 31.1365 38.3606 26.6756 36.3275 22.7979C34.2945 18.9201 30.9846 15.8635 26.9575 14.145L38.5 5.5M33.75 31.625C33.7513 34.3237 32.9862 36.9672 31.5439 39.248C30.1015 41.5289 28.0411 43.3533 25.6024 44.5089C23.1637 45.6646 20.447 46.104 17.7684 45.7761C15.0897 45.4482 12.5592 44.3663 10.4714 42.6565C8.38351 40.9466 6.82409 38.6791 5.97454 36.1176C5.125 33.5562 5.02026 30.8062 5.67251 28.1875C6.32477 25.5689 7.7072 23.1893 9.65896 21.3256C11.6107 19.4619 14.0516 18.1907 16.6975 17.66C18.5468 17.2825 20.4533 17.2825 22.3025 17.66C25.53 18.3074 28.4338 20.0521 30.5206 22.5979C32.6074 25.1436 33.7485 28.3333 33.75 31.625ZM20.9963 12.625H18.0038L8.50378 5.5H30.6863L20.9963 12.625Z" fill="white"/>
</svg>
