<svg width="49" height="49" viewBox="0 0 49 49" fill="none" xmlns="http://www.w3.org/2000/svg">
<path d="M17.6291 8.939C19.0494 4.78275 24.7921 4.65688 26.476 8.56138L26.6185 8.94138L28.5351 14.5464C28.9744 15.8318 29.6842 17.0081 30.6167 17.9959C31.5491 18.9837 32.6826 19.76 33.9406 20.2725L34.456 20.4649L40.061 22.3791C44.2173 23.7994 44.3431 29.5421 40.441 31.226L40.061 31.3685L34.456 33.2851C33.1701 33.7241 31.9934 34.4337 31.0052 35.3662C30.017 36.2987 29.2403 37.4324 28.7275 38.6906L28.5351 39.2036L26.6209 44.811C25.2006 48.9673 19.4579 49.0931 17.7764 45.191L17.6291 44.811L15.7149 39.206C15.2759 37.9201 14.5663 36.7434 13.6338 35.7552C12.7013 34.7669 11.5676 33.9903 10.3094 33.4775L9.79638 33.2851L4.19138 31.3709C0.0327535 29.9506 -0.0931212 24.2079 3.81138 22.5264L4.19138 22.3791L9.79638 20.4649C11.0818 20.0256 12.2581 19.3158 13.2459 18.3834C14.2337 17.4509 15.01 16.3174 15.5225 15.0594L15.7149 14.5464L17.6291 8.939ZM22.125 10.4732L20.2108 16.0783C19.5419 18.0383 18.4539 19.8291 17.0224 21.3258C15.5909 22.8225 13.8504 23.9892 11.922 24.7446L11.3283 24.9608L5.72325 26.875L11.3283 28.7892C13.2883 29.4581 15.0791 30.5461 16.5758 31.9776C18.0725 33.4091 19.2392 35.1496 19.9946 37.078L20.2108 37.6717L22.125 43.2767L24.0393 37.6717C24.7081 35.7117 25.7961 33.9209 27.2276 32.4242C28.6591 30.9275 30.3996 29.7608 32.328 29.0054L32.9218 28.7916L38.5268 26.875L32.9218 24.9608C30.9617 24.2919 29.1709 23.2039 27.6742 21.7724C26.1775 20.3409 25.0108 18.6004 24.2554 16.672L24.0416 16.0783L22.125 10.4732ZM41.125 0.75C41.5693 0.749999 42.0047 0.874636 42.3817 1.10974C42.7588 1.34485 43.0623 1.68101 43.2578 2.08L43.3718 2.35788L44.203 4.79463L46.6421 5.62588C47.0874 5.77715 47.4777 6.05721 47.7637 6.43056C48.0496 6.80391 48.2183 7.25374 48.2483 7.72305C48.2783 8.19236 48.1683 8.66001 47.9323 9.06674C47.6962 9.47348 47.3447 9.80098 46.9224 10.0077L46.6421 10.1218L44.2054 10.953L43.3741 13.3921C43.2226 13.8373 42.9423 14.2274 42.5688 14.5131C42.1953 14.7988 41.7454 14.9672 41.2761 14.997C40.8069 15.0267 40.3393 14.9165 39.9327 14.6803C39.5261 14.444 39.1988 14.0924 38.9923 13.67L38.8783 13.3921L38.047 10.9554L35.6079 10.1241C35.1626 9.97285 34.7723 9.69279 34.4863 9.31944C34.2004 8.94609 34.0317 8.49626 34.0017 8.02695C33.9717 7.55764 34.0817 7.08999 34.3177 6.68326C34.5538 6.27652 34.9053 5.94902 35.3276 5.74225L35.6079 5.62825L38.0446 4.797L38.8759 2.35788C39.036 1.88864 39.339 1.48128 39.7424 1.19293C40.1457 0.904586 40.6292 0.749702 41.125 0.75Z" fill="white"/>
</svg>
